<svg width="17" height="17" viewBox="0 0 17 17" fill="none" xmlns="http://www.w3.org/2000/svg">
<path d="M9.45922 2.37411C9.06897 2.00673 8.43624 2.00673 8.04599 2.37411L1.40416 8.62669C1.20903 8.81038 1.20903 9.10821 1.40416 9.2919C1.59928 9.47559 1.91565 9.47559 2.11077 9.2919L8.75261 3.03931L15.3944 9.2919C15.5896 9.47559 15.9059 9.47559 16.1011 9.2919C16.2962 9.10821 16.2962 8.81038 16.1011 8.62669L13.7491 6.41261V3.31485C13.7491 3.05507 13.5254 2.84448 13.2495 2.84448H12.2502C11.9742 2.84448 11.7505 3.05507 11.7505 3.31485V4.53113L9.45922 2.37411Z" fill="#00EEFF"/>
<path d="M8.7526 4.06076L14.7484 9.7052V13.663C14.7484 14.4423 14.0773 15.0741 13.2495 15.0741H4.25573C3.42788 15.0741 2.75677 14.4423 2.75677 13.663V9.7052L8.7526 4.06076Z" fill="#00EEFF"/>
</svg>
