<svg width="17" height="17" viewBox="0 0 17 17" fill="none" xmlns="http://www.w3.org/2000/svg">
<path d="M4.25781 0.940735C4.53395 0.940735 4.75781 1.16459 4.75781 1.44073V1.94073H12.7578V1.44073C12.7578 1.16459 12.9817 0.940735 13.2578 0.940735C13.534 0.940735 13.7578 1.16459 13.7578 1.44073V1.94073H14.7578C15.8624 1.94073 16.7578 2.83617 16.7578 3.94073V4.94073V5.94073V14.9407C16.7578 16.0453 15.8624 16.9407 14.7578 16.9407H2.75781C1.65324 16.9407 0.757812 16.0453 0.757812 14.9407V5.94073H16.7578V4.94073H0.757812V3.94073C0.757812 2.83617 1.65324 1.94073 2.75781 1.94073H3.75781V1.44073C3.75781 1.16459 3.98167 0.940735 4.25781 0.940735Z" fill="#00EEFF"/>
</svg>
