<svg width="16" height="14" viewBox="0 0 16 14" fill="none" xmlns="http://www.w3.org/2000/svg">
<path d="M8.21144 0.0469084C8.07742 -0.0156361 7.92258 -0.0156361 7.78856 0.0469084L0.288558 3.54691C0.107914 3.63121 -0.00539504 3.81476 0.000197994 4.01403C0.005791 4.2133 0.129217 4.3902 0.314306 4.46424L7.81431 7.46424C7.93351 7.51192 8.06649 7.51192 8.1857 7.46424L14 5.13852V11C13.4477 11 13 11.4477 13 12V14H16V12C16 11.4477 15.5523 11 15 11V4.73852L15.6857 4.46424C15.8708 4.3902 15.9942 4.2133 15.9998 4.01403C16.0054 3.81476 15.8921 3.63121 15.7114 3.54691L8.21144 0.0469084Z" fill="#00EEFF"/>
<path d="M4.17556 7.03184C4.04549 6.98306 3.90098 6.99059 3.77669 7.05264C3.6524 7.11468 3.55952 7.22564 3.52032 7.35892L3.02032 9.05891C2.94756 9.30631 3.07488 9.56846 3.31431 9.66424L7.81431 11.4642C7.93351 11.5119 8.06649 11.5119 8.1857 11.4642L12.6857 9.66424C12.9251 9.56846 13.0524 9.30631 12.9797 9.05891L12.4797 7.35892C12.4405 7.22564 12.3476 7.11468 12.2233 7.05264C12.099 6.99059 11.9545 6.98306 11.8244 7.03184L8 8.466L4.17556 7.03184Z" fill="#00EEFF"/>
</svg>
