<svg width="17" height="17" viewBox="0 0 17 17" fill="none" xmlns="http://www.w3.org/2000/svg">
<path d="M8.50884 2.46814C4.97689 2.46814 2.11328 5.16393 2.11328 8.48888C2.11328 11.3101 4.17691 13.6707 6.95898 14.324C6.92913 14.2427 6.90995 14.1484 6.90995 14.0315V13.0024C6.6504 13.0024 6.2155 13.0024 6.10624 13.0024C5.66868 13.0024 5.27961 12.8253 5.09095 12.4962C4.88149 12.1304 4.84525 11.571 4.32614 11.2288C4.17212 11.1149 4.28937 10.985 4.46685 11.0025C4.79462 11.0898 5.06643 11.3016 5.32225 11.6157C5.57701 11.9302 5.69692 12.0015 6.17286 12.0015C6.40363 12.0015 6.74899 11.9889 7.0741 11.9408C7.24891 11.5228 7.5511 11.138 7.92045 10.9564C5.79073 10.7502 4.77437 9.75273 4.77437 8.39857C4.77437 7.81556 5.03818 7.25162 5.4864 6.77648C5.33931 6.30486 5.15437 5.34304 5.5429 4.97678C6.50117 4.97678 7.0805 5.5618 7.2196 5.71984C7.69713 5.56581 8.22157 5.47851 8.77265 5.47851C9.3248 5.47851 9.85137 5.56581 10.33 5.72085C10.4675 5.5638 11.0473 4.97678 12.0077 4.97678C12.3979 5.34355 12.2108 6.30937 12.0621 6.77999C12.5077 7.25413 12.7699 7.81656 12.7699 8.39857C12.7699 9.75173 11.7551 10.7487 9.62859 10.9559C10.2138 11.2434 10.6407 12.0512 10.6407 12.6597V14.0315C10.6407 14.0837 10.6284 14.1213 10.622 14.1659C13.1142 13.3436 14.9044 11.1159 14.9044 8.48888C14.9044 5.16393 12.0408 2.46814 8.50884 2.46814Z" fill="#00EEFF"/>
</svg>
