<svg width="48" height="48" viewBox="0 0 48 48" fill="none" xmlns="http://www.w3.org/2000/svg">
<path d="M24.0008 4.80005C13.3976 4.80005 4.80078 13.3968 4.80078 24C4.80078 32.9968 10.996 40.5248 19.348 42.608C19.2584 42.3488 19.2008 42.0481 19.2008 41.6753V38.3936C18.4216 38.3936 17.116 38.3936 16.788 38.3936C15.4744 38.3936 14.3064 37.8288 13.74 36.7792C13.1112 35.6128 13.0024 33.8288 11.444 32.7376C10.9816 32.3744 11.3336 31.96 11.8664 32.016C12.8504 32.2944 13.6664 32.9696 14.4344 33.9712C15.1992 34.9744 15.5592 35.2016 16.988 35.2016C17.6808 35.2016 18.7176 35.1616 19.6936 35.008C20.2184 33.6752 21.1256 32.448 22.2344 31.8688C15.8408 31.2112 12.7896 28.0304 12.7896 23.712C12.7896 21.8528 13.5816 20.0544 14.9272 18.5392C14.4856 17.0352 13.9304 13.968 15.0968 12.8C17.9736 12.8 19.7128 14.6656 20.1304 15.1696C21.564 14.6784 23.1384 14.4 24.7928 14.4C26.4504 14.4 28.0312 14.6784 29.468 15.1728C29.8808 14.672 31.6216 12.8 34.5048 12.8C35.676 13.9696 35.1144 17.0496 34.668 18.5504C36.0056 20.0624 36.7928 21.856 36.7928 23.712C36.7928 28.0272 33.7464 31.2064 27.3624 31.8672C29.1192 32.784 30.4008 35.36 30.4008 37.3008V41.6753C30.4008 41.8417 30.364 41.9617 30.3448 42.1041C37.8264 39.4817 43.2008 32.3776 43.2008 24C43.2008 13.3968 34.604 4.80005 24.0008 4.80005Z" fill="white"/>
</svg>
