<svg width="17" height="17" viewBox="0 0 17 17" fill="none" xmlns="http://www.w3.org/2000/svg">
<path fill-rule="evenodd" clip-rule="evenodd" d="M2.39844 0.67404C3.14056 -0.0680747 4.36517 0.00816669 5.0095 0.836598L6.80321 3.14279C7.13237 3.566 7.24869 4.11705 7.11865 4.63719L6.57139 6.82626C6.51361 7.05736 6.58133 7.30184 6.74977 7.47029L9.20635 9.92686C9.3748 10.0953 9.61927 10.163 9.85038 10.1053L12.0394 9.55798C12.5596 9.42795 13.1106 9.54427 13.5338 9.87343L15.84 11.6671C16.6685 12.3115 16.7447 13.5361 16.0026 14.2782L14.9687 15.3121C14.229 16.0518 13.1225 16.3766 12.0914 16.0141C9.53121 15.114 7.12806 13.6404 5.08216 11.5945C3.03627 9.54858 1.56262 7.14542 0.66251 4.58521C0.29999 3.55409 0.624802 2.44768 1.36452 1.70796L2.39844 0.67404Z" fill="#00EEFF"/>
</svg>
