<svg width="113" height="113" viewBox="0 0 113 113" fill="none" xmlns="http://www.w3.org/2000/svg">
<path fill-rule="evenodd" clip-rule="evenodd" d="M0 0H7.0625V105.938H113V113H0V0ZM70.625 24.7188C70.625 22.7685 72.206 21.1875 74.1562 21.1875H102.406C104.357 21.1875 105.938 22.7685 105.938 24.7188V52.9688C105.938 54.919 104.357 56.5 102.406 56.5C100.456 56.5 98.875 54.919 98.875 52.9688V34.6112L73.358 65.7986C72.7263 66.5708 71.7973 67.0397 70.8009 67.0894C69.8045 67.1391 68.8335 66.7649 68.128 66.0595L49.8627 47.7941L24.0433 83.2957C22.8963 84.873 20.6878 85.2217 19.1105 84.0746C17.5333 82.9275 17.1846 80.719 18.3317 79.1418L46.5817 40.298C47.1891 39.4628 48.1317 38.9354 49.1613 38.8546C50.1909 38.7738 51.2042 39.1478 51.9345 39.878L70.3628 58.3064L94.9545 28.25H74.1562C72.206 28.25 70.625 26.669 70.625 24.7188Z" fill="white"/>
</svg>
