<svg width="17" height="16" viewBox="0 0 17 16" fill="none" xmlns="http://www.w3.org/2000/svg">
<path d="M16.7467 8.14817C16.7467 11.7851 13.1675 14.7334 8.75226 14.7334C7.93607 14.7334 7.14845 14.6326 6.40672 14.4454C5.82328 14.7237 4.48296 15.2587 2.22851 15.6061C2.02963 15.6368 1.8774 15.4409 1.95596 15.2662C2.30982 14.4793 2.62902 13.4315 2.72623 12.4756C1.50036 11.3184 0.757812 9.8047 0.757812 8.14817C0.757812 4.51128 4.33705 1.56299 8.75226 1.56299C13.1675 1.56299 16.7467 4.51128 16.7467 8.14817ZM5.75434 8.14817C5.75434 7.62862 5.30694 7.20743 4.75503 7.20743C4.20313 7.20743 3.75573 7.62862 3.75573 8.14817C3.75573 8.66773 4.20313 9.08891 4.75503 9.08891C5.30694 9.08891 5.75434 8.66773 5.75434 8.14817ZM9.75156 8.14817C9.75156 7.62862 9.30416 7.20743 8.75226 7.20743C8.20036 7.20743 7.75295 7.62862 7.75295 8.14817C7.75295 8.66773 8.20036 9.08891 8.75226 9.08891C9.30416 9.08891 9.75156 8.66773 9.75156 8.14817ZM12.7495 9.08891C13.3014 9.08891 13.7488 8.66773 13.7488 8.14817C13.7488 7.62862 13.3014 7.20743 12.7495 7.20743C12.1976 7.20743 11.7502 7.62862 11.7502 8.14817C11.7502 8.66773 12.1976 9.08891 12.7495 9.08891Z" fill="#00EEFF"/>
</svg>
